<svg width="28" height="28" viewBox="0 0 28 28" fill="none" xmlns="http://www.w3.org/2000/svg">
<path d="M25.5965 9.87943C25.5364 8.51566 25.3159 7.57808 24.9999 6.76565C24.674 5.90328 24.1726 5.1312 23.5157 4.48937C22.8739 3.83755 22.0967 3.33105 21.2443 3.01024C20.4272 2.69431 19.4945 2.47378 18.1307 2.41365C16.7568 2.34842 16.3206 2.33334 12.8359 2.33334C9.35113 2.33334 8.91495 2.34842 7.54608 2.40855C6.18231 2.46868 5.24473 2.68942 4.4325 3.00514C3.56994 3.33105 2.79786 3.83246 2.15602 4.48937C1.5042 5.1312 0.997905 5.90837 0.676891 6.76076C0.36097 7.57808 0.140431 8.51057 0.0803025 9.87434C0.0150812 11.2483 0 11.6845 0 15.1692C0 18.654 0.0150812 19.0901 0.0752101 20.459C0.135339 21.8228 0.356073 22.7604 0.671995 23.5728C0.997905 24.4352 1.5042 25.2072 2.15602 25.8491C2.79786 26.5009 3.57503 27.0074 4.42741 27.3282C5.24473 27.6441 6.17722 27.8647 7.54119 27.9248C8.90986 27.9851 9.34623 28 12.831 28C16.3157 28 16.7519 27.9851 18.1207 27.9248C19.4845 27.8647 20.4221 27.6441 21.2343 27.3282C22.9593 26.6613 24.323 25.2975 24.9899 23.5728C25.3057 22.7555 25.5264 21.8228 25.5865 20.459C25.6467 19.0901 25.6617 18.654 25.6617 15.1692C25.6617 11.6845 25.6566 11.2483 25.5965 9.87943ZM23.2852 20.3587C23.2299 21.6122 23.0194 22.2891 22.8439 22.7404C22.4126 23.8585 21.5252 24.746 20.407 25.1773C19.9558 25.3528 19.274 25.5633 18.0254 25.6183C16.6716 25.6787 16.2656 25.6936 12.841 25.6936C9.41635 25.6936 9.00524 25.6787 7.65635 25.6183C6.40285 25.5633 5.72596 25.3528 5.2747 25.1773C4.71826 24.9716 4.21177 24.6457 3.80066 24.2195C3.37447 23.8033 3.04856 23.3019 2.8429 22.7455C2.66741 22.2942 2.45686 21.6122 2.40183 20.3638C2.3415 19.01 2.32662 18.6038 2.32662 15.1792C2.32662 11.7546 2.3415 11.3435 2.40183 9.9948C2.45686 8.74129 2.66741 8.0644 2.8429 7.61314C3.04856 7.05651 3.37447 6.55021 3.80575 6.1389C4.22176 5.71271 4.72316 5.3868 5.27979 5.18134C5.73105 5.00585 6.41304 4.7953 7.66145 4.74007C9.01523 4.67994 9.42144 4.66486 12.8459 4.66486C16.2756 4.66486 16.6816 4.67994 18.0305 4.74007C19.284 4.7953 19.9609 5.00585 20.4121 5.18134C20.9685 5.3868 21.475 5.71271 21.8862 6.1389C22.3123 6.5551 22.6383 7.05651 22.8439 7.61314C23.0194 8.0644 23.2299 8.74619 23.2852 9.9948C23.3453 11.3486 23.3604 11.7546 23.3604 15.1792C23.3604 18.6038 23.3453 19.0049 23.2852 20.3587Z" fill="#062E2D"/>
<path d="M12.8359 8.57684C9.1958 8.57684 6.24243 11.53 6.24243 15.1703C6.24243 18.8105 9.1958 21.7637 12.8359 21.7637C16.4761 21.7637 19.4293 18.8105 19.4293 15.1703C19.4293 11.53 16.4761 8.57684 12.8359 8.57684ZM12.8359 19.4473C10.4744 19.4473 8.55887 17.532 8.55887 15.1703C8.55887 12.8086 10.4744 10.8933 12.8359 10.8933C15.1975 10.8933 17.1129 12.8086 17.1129 15.1703C17.1129 17.532 15.1975 19.4473 12.8359 19.4473V19.4473Z" fill="#062E2D"/>
<path d="M21.2296 8.31597C21.2296 9.166 20.5404 9.85523 19.6901 9.85523C18.8401 9.85523 18.1509 9.166 18.1509 8.31597C18.1509 7.46574 18.8401 6.7767 19.6901 6.7767C20.5404 6.7767 21.2296 7.46574 21.2296 8.31597V8.31597Z" fill="#062E2D"/>
<circle cx="23.3334" cy="4.66668" r="4.66668" fill="#FF001D"/>
</svg>
